<svg width="372" height="420" viewBox="0 0 372 420" fill="none" xmlns="http://www.w3.org/2000/svg">
    <path d="M263.554 206.775C195.801 183 154.057 225.338 189.275 256.527M340.814 319.897C327.811 335.587 302.984 346.663 258.869 344.032C217.074 341.539 195.63 327.556 186.325 310.777M340.814 319.897C347.059 348.361 338.098 404.085 254.483 396.684C233.874 394.86 218.504 390.337 207.235 384.158M340.814 319.897C355.486 302.194 353.602 275.439 348.806 258.879M186.325 310.777C176.22 292.555 181.228 270.246 189.275 256.527M186.325 310.777C176.66 330.885 172.784 365.265 207.235 384.158M74.2756 173.325C81.1117 173.325 87.3445 172.542 93.0509 171.085M209.393 383.5C208.675 383.724 207.956 383.943 207.235 384.158M93.0509 171.085C169.902 151.474 150.034 3.85006 224.122 10.1989C300.213 16.7194 233.419 160.284 233.419 160.284C277.31 153.872 359.27 163.739 361.689 218.512C362.447 235.662 357.509 248.931 348.806 258.879M93.0509 171.085C93.0509 171.085 85.2414 145.296 63.6209 143.623C-14.9605 137.545 1.71448 394.08 56.6427 408.041C97.2987 418.375 108.802 384.459 108.802 384.459M108.802 384.459C96.6896 380 86.5695 373.628 78.3735 365.491M108.802 384.459C134.966 394.089 172.439 394.527 207.235 384.158M348.806 258.879C313.81 298.879 226.535 289.522 189.275 256.527"
          stroke="#7AC74F" stroke-width="20"/>
</svg>
