<svg width="477" height="420" viewBox="0 0 477 420" fill="none" xmlns="http://www.w3.org/2000/svg">
    <path d="M368.878 13.4352C319.11 -10.8744 317.418 101.612 262.343 107.171C202.11 113.251 195.924 -13.4031 137.997 22.9346C87.4427 54.6474 186.131 120.602 155.808 171.849C125.007 223.906 8.0618 162.934 10.0244 223.404C12.6644 304.746 151.369 195.177 190.385 255.274C222.741 305.111 114.3 378.1 179.171 407.127C235.458 432.312 211.135 283.753 272.623 279.646C315.146 276.805 338.141 360.792 368.878 331.201C402.386 298.941 323.025 270.631 337.104 232.778C355.392 183.611 466.067 248.672 466.067 196.221C466.067 143.769 366.265 203.238 337.104 159.664C304.625 111.131 421.301 39.0422 368.878 13.4352Z"
          stroke="#7AC74F" stroke-width="20"/>
</svg>
